<svg width="115" height="35" viewBox="0 0 115 35" fill="none" xmlns="http://www.w3.org/2000/svg">
<path fill-rule="evenodd" clip-rule="evenodd" d="M2.71226 0C1.21432 0 0 1.22422 0 2.73438V32.2656C0 33.7758 1.21432 35 2.71226 35H112.288C113.785 35 115 33.7758 115 32.2656V2.73438C115 1.22422 113.785 0 112.288 0H2.71226ZM42.1236 6.78125C42.1713 6.63687 42.1872 6.5246 42.1713 6.44438C42.1713 6.25188 41.9883 6.0754 41.6223 5.915C41.2564 5.73852 40.962 5.65031 40.7392 5.65031C39.6731 5.65031 38.615 5.73852 37.5648 5.915C36.5146 6.09148 35.4962 6.40429 34.5097 6.85344C33.4754 7.36679 32.6559 7.94429 32.0513 8.58594C31.3671 9.30781 31.025 10.0297 31.025 10.7516C31.025 11.0724 31.1125 11.4013 31.2875 11.7381C31.4625 12.059 31.6456 12.2835 31.8365 12.4119L35.7508 15.2513C35.7986 15.2834 35.8383 15.3796 35.8702 15.54C35.902 15.7004 35.9179 15.8127 35.9179 15.8769C35.9179 16.0694 35.8702 16.2619 35.7747 16.4544C35.6792 16.6309 35.5519 16.8073 35.3928 16.9837L33.197 19.4862C32.6878 20.0156 32.1865 20.545 31.6933 21.0744C30.7226 22.1171 30.2374 22.9834 30.2374 23.6731C30.2374 24.3629 30.659 25.0206 31.5023 25.6462C32.3456 26.2719 33.2606 26.5847 34.2472 26.5847L35.3928 26.5125L38.973 23.6491C38.973 23.5368 38.9014 23.4726 38.7582 23.4566H38.5673L38.1615 23.8416C37.7478 24.2266 37.3659 24.4832 37.0158 24.6116C36.6817 24.7399 36.26 24.8041 35.7508 24.8041C34.7484 24.8041 33.9209 24.5073 33.2686 23.9137C32.7275 23.4165 32.4571 22.9191 32.4571 22.4219C32.4571 22.0209 32.5525 21.6038 32.7435 21.1706C32.9503 20.7375 33.2447 20.3044 33.6266 19.8713L36.443 16.695C37.35 15.7004 37.8194 15.1791 37.8512 15.1309C38.0739 14.8262 38.1854 14.5775 38.1854 14.385C38.1854 14.0963 38.0978 13.8556 37.9228 13.6631C37.891 13.631 37.6921 13.4787 37.3261 13.2059L33.8175 10.7516C33.5789 10.6072 33.4118 10.4788 33.3163 10.3666C33.1254 10.158 33.0299 9.93344 33.0299 9.69281C33.0299 8.61804 33.5232 7.82398 34.5097 7.31063C35.003 7.05398 35.5201 6.8775 36.0611 6.78125C36.6021 6.66898 37.0954 6.61281 37.5409 6.61281C38.6389 6.61281 39.4504 6.80531 39.9755 7.19031C40.2778 7.41491 40.5085 7.75977 40.6676 8.225H40.8586L42.052 6.97375C42.0997 6.89352 42.1236 6.82937 42.1236 6.78125ZM48.9541 20.5931C50.2111 19.4702 50.8397 18.5799 50.8397 17.9222C50.8397 17.5051 50.5214 17.072 49.8849 16.6228C49.678 16.4784 49.3598 16.294 48.9302 16.0694L45.5648 14.1203C45.2943 13.9759 45.1193 13.7834 45.0397 13.5428C44.9602 13.2862 44.9204 13.0295 44.9204 12.7728V12.4119L44.6817 12.5081L43.2735 14.6497C43.2576 14.8743 43.2655 15.0427 43.2974 15.155C43.3929 15.5079 43.6395 15.7806 44.0373 15.9731L48.0948 17.9463C48.3176 18.0746 48.4767 18.1869 48.5722 18.2831C48.8745 18.5879 49.0257 18.9729 49.0257 19.4381C49.0257 19.8231 48.8268 20.152 48.429 20.4247C48.0312 20.6974 47.6095 20.8337 47.164 20.8337C46.7662 20.8337 46.4241 20.7375 46.1377 20.545C45.8672 20.3365 45.7319 20.0637 45.7319 19.7269C45.7319 19.4541 45.8751 19.0531 46.1615 18.5238C46.2411 18.3634 46.3764 18.1388 46.5673 17.85L45.0636 18.0666C44.7295 18.4355 44.4908 18.7403 44.3476 18.9809C43.8861 19.7188 43.6554 20.4648 43.6554 21.2188C43.6554 21.5877 43.7588 21.8845 43.9657 22.1091C44.1884 22.3337 44.5942 22.4459 45.183 22.4459C46.3286 22.4459 47.5856 21.8284 48.9541 20.5931ZM59.9177 22.8791L61.5646 21.4834C60.7694 21.0984 60.1803 20.4488 59.7984 19.5344C59.5917 18.8606 59.3926 18.1788 59.2017 17.4891C58.7406 18.2751 58.3663 18.8606 58.0799 19.2456C57.1892 20.4166 56.3853 21.0022 55.6692 21.0022C54.9852 21.0022 54.5317 20.3445 54.3087 19.0291C54.2452 18.5959 54.1975 17.9463 54.1656 17.08L51.8743 17.7056C51.9858 18.7965 52.113 19.6146 52.2562 20.16C52.6858 21.7962 53.3462 22.6144 54.2373 22.6144C54.6668 22.6144 55.0329 22.5582 55.3351 22.4459C55.6378 22.3497 55.916 22.1652 56.1704 21.8925L57.6025 20.3044C57.7777 21.0102 57.9687 21.5396 58.1754 21.8925C58.5735 22.5502 59.1539 22.8791 59.9177 22.8791ZM66.0306 6.97375C66.0306 6.86148 66.0621 6.75719 66.1261 6.66094H65.8158L64.0018 7.31063L63.7154 7.47906L63.8825 7.6475C64.0734 7.90415 64.1526 8.14477 64.1212 8.36938L62.5936 22.4219L63.8825 22.2294C64.0572 22.1973 64.1928 22.1251 64.2883 22.0128C64.3837 21.9005 64.4472 21.6519 64.4792 21.2669L66.0306 6.97375ZM67.94 23.24L69.4676 22.0128L67.0092 19.5825L68.3697 18.6681C68.5763 18.5398 68.7277 18.4115 68.8232 18.2831C68.9186 18.1548 68.9664 17.9944 68.9664 17.8019C68.9664 17.5291 68.8628 17.2084 68.6561 16.8394C68.5921 16.7271 68.4966 16.5827 68.3697 16.4062L66.2932 17.8019C66.4364 17.9462 66.5394 18.0585 66.6034 18.1388C66.8101 18.4115 66.9137 18.6521 66.9137 18.8606C66.9137 19.0371 66.8736 19.1895 66.7944 19.3178C66.7146 19.4301 66.5953 19.5504 66.4364 19.6788L65.2907 20.6653L67.94 23.24ZM77.4693 20.1841C77.5491 19.9916 77.5887 19.775 77.5887 19.5344C77.5887 19.2616 77.4775 18.9729 77.2545 18.6681C77.0478 18.3473 76.7934 18.1227 76.4907 17.9944L74.1994 17.08L72.3138 17.9463L72.9821 18.2591L70.834 19.7991C70.7071 19.8953 70.6035 20.0557 70.5238 20.2803C70.4603 20.5049 70.4283 20.7455 70.4283 21.0022C70.4283 21.3872 70.6116 21.7321 70.9772 22.0369C71.2957 22.2935 71.6379 22.4219 72.0036 22.4219H73.4118C73.7459 22.4219 74.0486 22.3577 74.3187 22.2294L77.0874 20.6172C77.2784 20.5049 77.4058 20.3605 77.4693 20.1841ZM75.6553 19.9194C75.7986 20.1279 75.8702 20.3525 75.8702 20.5931C75.8702 20.8659 75.759 21.0984 75.536 21.2909C75.3293 21.4674 75.0587 21.5556 74.7245 21.5556C74.1837 21.5556 73.6586 21.3952 73.1492 21.0744C72.6404 20.7375 72.3854 20.3685 72.3854 19.9675C72.3854 19.7429 72.4093 19.5344 72.457 19.3419C72.5211 19.1334 72.6241 18.9729 72.7673 18.8606L73.2924 18.4516L75.2257 19.4622C75.3689 19.5424 75.5121 19.6948 75.6553 19.9194ZM82.9296 21.7722C83.5025 21.3391 83.7889 20.7776 83.7889 20.0878C83.7889 19.8472 83.7173 19.6466 83.5741 19.4862C83.4309 19.3259 83.2481 19.2456 83.0251 19.2456H81.6646C81.3782 19.2456 81.1558 19.1895 80.9963 19.0772C80.8374 18.9488 80.7577 18.7243 80.7577 18.4034C80.7577 18.1468 80.8135 17.9302 80.9247 17.7537C81.0365 17.5773 81.1797 17.4891 81.3544 17.4891L81.6646 17.5853L82.7148 18.0666L82.9058 18.0425L83.1206 16.9837L83.0251 16.7672H82.2613C81.9592 16.7672 81.4021 17.0078 80.5906 17.4891C79.5404 18.1147 79.0153 18.7884 79.0153 19.5103C79.0153 19.6868 79.0473 19.8953 79.1108 20.1359C79.1905 20.3605 79.3494 20.4728 79.5881 20.4728H81.3066C81.784 20.4728 82.0547 20.7455 82.1181 21.2909C82.1181 21.5155 82.0465 21.7241 81.9033 21.9166C81.7601 22.1091 81.5773 22.2053 81.3544 22.2053C81.0365 22.2053 80.8135 22.1732 80.6861 22.1091L79.3017 21.3872C79.2062 21.3391 79.0554 21.3872 78.8482 21.5316C78.6415 21.6759 78.5379 21.8363 78.5379 22.0128C78.5379 22.2053 78.5857 22.3577 78.6812 22.47C78.7766 22.5823 78.9676 22.6384 79.254 22.6384C80.9247 22.6384 82.1501 22.3497 82.9296 21.7722ZM6.50943 4.64844C6.50943 5.70555 5.65941 6.5625 4.61085 6.5625C3.56229 6.5625 2.71226 5.70555 2.71226 4.64844C2.71226 3.59133 3.56229 2.73438 4.61085 2.73438C5.65941 2.73438 6.50943 3.59133 6.50943 4.64844ZM4.61085 32.2656C5.65941 32.2656 6.50943 31.4087 6.50943 30.3516C6.50943 29.2945 5.65941 28.4375 4.61085 28.4375C3.56229 28.4375 2.71226 29.2945 2.71226 30.3516C2.71226 31.4087 3.56229 32.2656 4.61085 32.2656ZM112.288 30.3516C112.288 31.4087 111.438 32.2656 110.389 32.2656C109.341 32.2656 108.491 31.4087 108.491 30.3516C108.491 29.2945 109.341 28.4375 110.389 28.4375C111.438 28.4375 112.288 29.2945 112.288 30.3516ZM110.389 6.5625C111.438 6.5625 112.288 5.70555 112.288 4.64844C112.288 3.59133 111.438 2.73438 110.389 2.73438C109.341 2.73438 108.491 3.59133 108.491 4.64844C108.491 5.70555 109.341 6.5625 110.389 6.5625Z" fill="#615A2C"/>
</svg>
